<svg width="20" height="20" viewBox="0 0 20 20" fill="none" xmlns="http://www.w3.org/2000/svg">
<path d="M8.9996 10.5919H3.8746L4.9746 11.6669C5.1746 11.8669 5.2746 12.1085 5.2746 12.3919C5.2746 12.6752 5.1746 12.9169 4.9746 13.1169C4.7746 13.3169 4.53293 13.4169 4.2496 13.4169C3.96627 13.4169 3.7246 13.3169 3.5246 13.1169L0.699599 10.2919C0.599599 10.1919 0.528599 10.0835 0.486599 9.96686C0.444599 9.85019 0.424265 9.72519 0.425599 9.59186C0.426932 9.45853 0.447932 9.33353 0.488599 9.21686C0.529265 9.10019 0.599932 8.99186 0.700599 8.89186L3.5256 6.06686C3.7256 5.86686 3.96326 5.76686 4.2386 5.76686C4.51393 5.76686 4.75127 5.86686 4.9506 6.06686C5.14993 6.26686 5.24993 6.50453 5.2506 6.77986C5.25127 7.05519 5.15127 7.29253 4.9506 7.49186L3.8496 8.59186H8.9996V3.44186L7.8746 4.56686C7.6746 4.76686 7.44127 4.86286 7.1746 4.85486C6.90793 4.84686 6.6746 4.74253 6.4746 4.54186C6.2746 4.34119 6.1746 4.10386 6.1746 3.82986C6.1746 3.55586 6.2746 3.31819 6.4746 3.11686L9.2996 0.291861C9.3996 0.191861 9.50793 0.120861 9.6246 0.0788614C9.74127 0.0368614 9.86627 0.0161947 9.9996 0.0168613C10.1329 0.017528 10.2579 0.0381947 10.3746 0.0788614C10.4913 0.119528 10.5996 0.190528 10.6996 0.291861L13.5496 3.14186C13.7496 3.34186 13.8496 3.57519 13.8496 3.84186C13.8496 4.10853 13.7496 4.34186 13.5496 4.54186C13.3496 4.74186 13.1119 4.84186 12.8366 4.84186C12.5613 4.84186 12.3239 4.74186 12.1246 4.54186L10.9996 3.44186V8.59186H16.1246L15.0246 7.51686C14.8246 7.31686 14.7246 7.07519 14.7246 6.79186C14.7246 6.50853 14.8246 6.26686 15.0246 6.06686C15.2246 5.86686 15.4663 5.76686 15.7496 5.76686C16.0329 5.76686 16.2746 5.86686 16.4746 6.06686L19.2996 8.89186C19.3996 8.99186 19.4706 9.10019 19.5126 9.21686C19.5546 9.33353 19.5753 9.45853 19.5746 9.59186C19.5739 9.72519 19.5533 9.85019 19.5126 9.96686C19.4719 10.0835 19.4009 10.1919 19.2996 10.2919L16.4496 13.1419C16.2496 13.3419 16.0163 13.4379 15.7496 13.4299C15.4829 13.4219 15.2496 13.3175 15.0496 13.1169C14.8496 12.9162 14.7496 12.6789 14.7496 12.4049C14.7496 12.1309 14.8496 11.8932 15.0496 11.6919L16.1496 10.5919H10.9996V15.7169L12.0746 14.6169C12.2746 14.4169 12.5163 14.3169 12.7996 14.3169C13.0829 14.3169 13.3246 14.4169 13.5246 14.6169C13.7246 14.8169 13.8246 15.0585 13.8246 15.3419C13.8246 15.6252 13.7246 15.8669 13.5246 16.0669L10.6996 18.8919C10.5996 18.9919 10.4913 19.0629 10.3746 19.1049C10.2579 19.1469 10.1329 19.1675 9.9996 19.1669C9.86627 19.1662 9.74127 19.1455 9.6246 19.1049C9.50793 19.0642 9.3996 18.9932 9.2996 18.8919L6.4496 16.0419C6.2496 15.8419 6.15393 15.6045 6.1626 15.3299C6.17127 15.0552 6.27527 14.8175 6.4746 14.6169C6.67393 14.4162 6.9116 14.3162 7.1876 14.3169C7.4636 14.3175 7.70093 14.4175 7.8996 14.6169L8.9996 15.7419V10.5919Z" fill="#DB005B"/>
</svg>
