<svg width="24" height="24" viewBox="0 0 24 24" fill="none" xmlns="http://www.w3.org/2000/svg">
<path d="M11.7659 13.5914C11.9551 13.7492 12.1935 13.8359 12.4398 13.8364H12.4433C12.4548 13.8368 12.4664 13.837 12.478 13.837C12.7203 13.8354 12.9543 13.7486 13.139 13.5917C13.1786 13.5588 17.1195 10.2784 18.4705 8.73817C20.0531 6.93316 20.0367 4.33004 18.432 2.683C18.0444 2.28235 17.5802 1.96375 17.0669 1.74617C16.5536 1.5286 16.0019 1.41648 15.4444 1.4165C14.8869 1.41652 14.3351 1.52868 13.8219 1.7463C13.3087 1.96391 12.8444 2.28254 12.4568 2.68323L12.453 2.68721L12.4492 2.68346C12.0617 2.28273 11.5975 1.96407 11.0842 1.74644C10.571 1.5288 10.0192 1.41665 9.4617 1.41665C8.90422 1.41665 8.35243 1.5288 7.83918 1.74644C7.32594 1.96407 6.86172 2.28273 6.47416 2.68346C4.86905 4.32995 4.85257 6.93315 6.4359 8.73863C7.78252 10.2738 11.7265 13.5586 11.7659 13.5914Z" fill="#DB005B"/>
<path d="M23.0445 15.5218C23.0415 15.5081 23.0381 15.4945 23.034 15.481L22.9767 15.292C22.972 15.2763 22.9664 15.261 22.9601 15.2459C22.7844 14.8291 22.3601 14.3675 21.3375 14.5371C21.2984 14.5435 21.2603 14.5549 21.2241 14.5709L15.4074 17.1481C15.229 16.7084 14.8377 16.399 14.2695 16.267C13.9684 16.2054 13.6638 16.1625 13.3575 16.1385C12.6505 16.067 11.8492 15.9859 11.0123 15.5568C10.5913 15.321 10.1874 15.056 9.80339 14.7637C9.24153 14.3596 8.66058 13.9418 8.08979 13.7073C7.41868 13.4317 6.42398 13.3787 5.95765 13.3698C5.95236 13.2496 5.90094 13.1361 5.81407 13.0528C5.7272 12.9696 5.61158 12.923 5.49126 12.9229H1.55402C1.49249 12.9228 1.43156 12.935 1.37471 12.9585C1.31786 12.9821 1.2662 13.0166 1.22269 13.0601C1.17918 13.1036 1.14466 13.1552 1.12111 13.2121C1.09757 13.2689 1.08545 13.3299 1.08545 13.3914V20.9111C1.08545 20.9726 1.09757 21.0336 1.12111 21.0904C1.14466 21.1473 1.17918 21.1989 1.22269 21.2424C1.2662 21.2859 1.31785 21.3205 1.37471 21.344C1.43156 21.3676 1.49249 21.3797 1.55402 21.3797H5.49125C5.55278 21.3797 5.61371 21.3676 5.67056 21.344C5.72741 21.3205 5.77907 21.2859 5.82258 21.2424C5.86609 21.1989 5.9006 21.1473 5.92415 21.0904C5.9477 21.0336 5.95981 20.9726 5.95981 20.9111V20.8914L12.341 22.4815C12.3458 22.4827 12.3506 22.4838 12.3554 22.4848C12.6164 22.5466 12.8833 22.5798 13.1515 22.5838C13.5739 22.581 13.9905 22.4845 14.3712 22.3012C14.3875 22.2937 14.4033 22.2852 14.4186 22.2759C14.6555 22.1317 20.2386 18.7282 22.0483 17.2236C22.1154 17.1678 22.183 17.1147 22.2491 17.0629C22.6537 16.7451 23.2078 16.31 23.0445 15.5218ZM21.6704 16.3258C21.5976 16.3829 21.5232 16.4414 21.4492 16.503C19.7501 17.9156 14.3604 21.2135 13.9551 21.461C13.388 21.716 12.987 21.6622 12.5605 21.5704L5.95981 19.9255V14.3072C6.43114 14.3175 7.24774 14.3746 7.73374 14.5741C8.20267 14.7668 8.73825 15.152 9.25608 15.5245C9.67786 15.8444 10.1219 16.1339 10.5848 16.3908C11.579 16.9005 12.5128 16.995 13.2632 17.0709C13.5299 17.0914 13.7951 17.1278 14.0575 17.1799C14.5319 17.29 14.5906 17.5354 14.5792 17.786L14.5545 18.0372C14.5539 18.0443 14.5533 18.0514 14.553 18.0586C14.5408 18.2904 14.2414 18.5343 13.7096 18.5343C13.705 18.5343 13.7002 18.5343 13.6956 18.5343C12.1208 18.5216 9.66881 17.9212 9.64418 17.9151C9.58435 17.9001 9.52214 17.8971 9.46114 17.9062C9.40013 17.9153 9.34152 17.9363 9.28866 17.9681C9.23581 17.9999 9.18975 18.0418 9.15314 18.0915C9.11652 18.1411 9.09007 18.1975 9.07529 18.2574C9.06052 18.3173 9.05771 18.3795 9.06704 18.4404C9.07636 18.5014 9.09763 18.56 9.12963 18.6127C9.16163 18.6654 9.20372 18.7113 9.2535 18.7477C9.30327 18.7842 9.35975 18.8104 9.41969 18.825C9.52434 18.8508 12.0025 19.4578 13.6881 19.4714C13.6955 19.4714 13.7029 19.4715 13.7102 19.4715C14.8142 19.4715 15.4335 18.8082 15.486 18.1384L21.5468 15.453C21.9673 15.3936 22.0497 15.506 22.0876 15.5894L22.1301 15.7298C22.1607 15.9049 22.0835 16.0014 21.6704 16.3258Z" fill="#DB005B"/>
</svg>
