<svg width="24" height="25" viewBox="0 0 24 25" fill="none" xmlns="http://www.w3.org/2000/svg">
<g clip-path="url(#clip0_16012_656)">
<path d="M24 12.0615C24 5.43408 18.6274 0.0615234 12 0.0615234C5.37256 0.0615234 0 5.43408 0 12.0615C0 18.689 5.37256 24.0615 12 24.0615H24V22.0615H18.625C21.98 19.8403 23.9985 16.0854 24 12.0615ZM17.8779 20.1519C16.5376 21.1255 14.6611 20.8286 13.6875 19.4878C12.7139 18.1475 13.0107 16.2715 14.3511 15.2974C15.6919 14.3237 17.5679 14.6206 18.5415 15.9614C19.5156 17.3018 19.2183 19.1777 17.8779 20.1519ZM17.7305 7.04541C19.3062 6.5332 20.9985 7.39551 21.5107 8.97119C22.0225 10.5474 21.1602 12.2397 19.5845 12.7515C18.0088 13.2637 16.3164 12.4014 15.8042 10.8257C15.2925 9.25 16.1548 7.55713 17.7305 7.04541ZM12 2.06152C13.6567 2.06152 15 3.40479 15 5.06152C15 6.71826 13.6567 8.06152 12 8.06152C10.3433 8.06152 9 6.71826 9 5.06152C9 3.40479 10.3433 2.06152 12 2.06152ZM2.48926 8.97119C3.00146 7.39551 4.69385 6.5332 6.26953 7.04492C7.84521 7.55713 8.70752 9.24951 8.1958 10.8252C7.68359 12.4009 5.99121 13.2632 4.41553 12.7515C2.83984 12.2397 1.97754 10.5474 2.48926 8.97119ZM10.3125 19.4878C9.33887 20.8286 7.4624 21.1255 6.12207 20.1519C4.78174 19.1777 4.48438 17.3018 5.4585 15.9614C6.43213 14.6211 8.30859 14.3237 9.64893 15.2979C10.9893 16.2715 11.2861 18.1475 10.3125 19.4878ZM11 12.0615C11 11.5093 11.4478 11.0615 12 11.0615C12.5522 11.0615 13 11.5093 13 12.0615C13 12.6138 12.5522 13.0615 12 13.0615C11.4478 13.0615 11 12.6138 11 12.0615Z" fill="white"/>
</g>
<defs>
<clipPath id="clip0_16012_656">
<rect width="24" height="24" fill="white" transform="translate(0 0.0615234)"/>
</clipPath>
</defs>
</svg>
