<svg width="25" height="25" viewBox="0 0 25 25" fill="none" xmlns="http://www.w3.org/2000/svg">
<path d="M15.25 20.5918C14.9667 20.5918 14.7293 20.4958 14.538 20.3038C14.3467 20.1118 14.2507 19.8745 14.25 19.5918C14.2493 19.3091 14.3453 19.0718 14.538 18.8798C14.7307 18.6878 14.968 18.5918 15.25 18.5918H16.85L14.375 16.1168C14.175 15.9168 14.0793 15.6795 14.088 15.4048C14.0967 15.1301 14.2007 14.8925 14.4 14.6918C14.5993 14.4911 14.837 14.3911 15.113 14.3918C15.389 14.3925 15.6263 14.4925 15.825 14.6918L18.25 17.1418V15.5918C18.25 15.3085 18.346 15.0711 18.538 14.8798C18.73 14.6885 18.9673 14.5925 19.25 14.5918C19.5327 14.5911 19.7703 14.6871 19.963 14.8798C20.1557 15.0725 20.2513 15.3098 20.25 15.5918V19.5918C20.25 19.8751 20.154 20.1128 19.962 20.3048C19.77 20.4968 19.5327 20.5925 19.25 20.5918H15.25ZM4.55 20.2918C4.36667 20.1085 4.275 19.8751 4.275 19.5918C4.275 19.3085 4.36667 19.0751 4.55 18.8918L16.85 6.5918H15.25C14.9667 6.5918 14.7293 6.4958 14.538 6.3038C14.3467 6.1118 14.2507 5.87446 14.25 5.5918C14.2493 5.30913 14.3453 5.0718 14.538 4.8798C14.7307 4.6878 14.968 4.5918 15.25 4.5918H19.25C19.5333 4.5918 19.771 4.6878 19.963 4.8798C20.155 5.0718 20.2507 5.30913 20.25 5.5918V9.5918C20.25 9.87513 20.154 10.1128 19.962 10.3048C19.77 10.4968 19.5327 10.5925 19.25 10.5918C18.9673 10.5911 18.73 10.4951 18.538 10.3038C18.346 10.1125 18.25 9.87513 18.25 9.5918V7.9918L5.95 20.2918C5.76667 20.4751 5.53333 20.5668 5.25 20.5668C4.96667 20.5668 4.73333 20.4751 4.55 20.2918ZM4.525 6.2918C4.34167 6.10846 4.25 5.87513 4.25 5.5918C4.25 5.30846 4.34167 5.07513 4.525 4.8918C4.70833 4.70846 4.93733 4.6168 5.212 4.6168C5.48667 4.6168 5.72433 4.70846 5.925 4.8918L10.125 9.0668C10.3083 9.25013 10.4043 9.47946 10.413 9.7548C10.4217 10.0301 10.3257 10.2675 10.125 10.4668C9.94167 10.6501 9.70833 10.7418 9.425 10.7418C9.14167 10.7418 8.90833 10.6501 8.725 10.4668L4.525 6.2918Z" fill="white"/>
</svg>
